PathFileType	4	(X/Y/Z)	Kaydara																																																																																																																									
DataRate	CameraRate	NumFrames	NumMarkers	Units	OrigDataRate	OrigDataStartFrame	OrigNumFrames																																																																																																																					
30	30	7	41	mm	30	38	151																																																																																																																					
Frame#	Time	SALE_LFHD			SALE_RFHD			SALE_LBHD			SALE_RBHD			SALE_LFTShould			SALE_RFTShould			SALE_LRRShould			SALE_RRRShould			SALE_T10			SALE_STRN			SALE_TRUN			SALE_LSHO			SALE_LUPA			SALE_LELB			SALE_LFRM			SALE_LWRA			SALE_LWRB			SALE_LFIN			SALE_RSHO			SALE_RUPA			SALE_RELB			SALE_RFRM			SALE_RWRB			SALE_RFIN			SALE_LFWT			SALE_RFWT			SALE_LBWT			SALE_RBWT			SALE_LTHI			SALE_LKNE			SALE_RWRA			SALE_LSHN			SALE_LANK			SALE_LHEE			SALE_LTOE			SALE_RTHI			SALE_RKNE			SALE_RSHN			SALE_RANK			SALE_RHEE			SALE_RTOE		
		X1	Y1	Z1	X2	Y2	Z2	X3	Y3	Z3	X4	Y4	Z4	X5	Y5	Z5	X6	Y6	Z6	X7	Y7	Z7	X8	Y8	Z8	X9	Y9	Z9	X10	Y10	Z10	X11	Y11	Z11	X12	Y12	Z12	X13	Y13	Z13	X14	Y14	Z14	X15	Y15	Z15	X16	Y16	Z16	X17	Y17	Z17	X18	Y18	Z18	X19	Y19	Z19	X20	Y20	Z20	X21	Y21	Z21	X22	Y22	Z22	X23	Y23	Z23	X24	Y24	Z24	X25	Y25	Z25	X26	Y26	Z26	X27	Y27	Z27	X28	Y28	Z28	X29	Y29	Z29	X30	Y30	Z30	X31	Y31	Z31	X32	Y32	Z32	X33	Y33	Z33	X34	Y34	Z34	X35	Y35	Z35	X36	Y36	Z36	X37	Y37	Z37	X38	Y38	Z38	X39	Y39	Z39	X40	Y40	Z40	X41	Y41	Z41
																																																																																																																												
38	1.243	225.70618	1657.64633	-1986.35559	92.3966	1652.22488	-1985.89355	222.93818	1632.47269	-2118.68576	96.77526	1626.00204	-2111.85928	241.06594	1385.98633	-2012.64496	101.0605	1386.30356	-2010.5043	232.40913	1443.82629	-2129.37241	82.92556	1450.73624	-2116.28601	153.15949	1292.5383	-2190.29373	168.77623	1315.60898	-1964.47281	166.21056	1229.54742	-1923.52081	354.9675	1412.29477	-2091.64154	388.53901	1196.71745	-2121.37054	368.36708	1088.9695	-2141.04935	402.40593	983.2859	-2116.59332	357.0966	848.32344	-2034.43619	411.44073	838.45314	-2086.01395	419.17347	798.33572	-2035.27924	-8.12488	1417.67914	-2070.73807	-38.04336	1190.48164	-2142.04681	-71.89372	1089.83482	-2102.64145	-64.34814	976.20796	-2110.64011	-88.83989	838.39546	-2061.90353	-107.79379	803.77831	-2010.40588	290.03922	975.05394	-1984.9353	9.92879	974.61456	-1994.59122	235.87976	1038.91556	-2152.28226	59.08345	1044.10637	-2157.77313	284.01001	678.28804	-2158.05038	272.45155	505.2124	-2087.38022	-54.17841	855.00496	-2001.89255	265.73397	307.36752	-2096.04416	257.61892	124.71334	-2149.84787	216.53553	76.17556	-2212.39639	233.32029	86.95146	-2015.61554	4.63977	724.79156	-2156.16531	29.27943	565.16689	-2061.44119	78.58562	374.73854	-2083.06015	34.42637	123.12007	-2143.01743	48.43637	78.17233	-2023.4671	77.23502	64.02342	-2214.80652
39	1.277	225.72586	1657.50443	-1985.77606	92.60554	1652.11258	-1985.43091	223.16067	1632.51907	-2118.17719	97.03771	1625.99182	-2111.33743	244.65164	1387.28546	-2014.96475	101.43162	1386.0849	-2010.42206	232.71067	1443.82996	-2129.22394	83.21037	1450.67596	-2116.11404	153.50094	1292.50305	-2190.12833	169.12271	1315.45715	-1964.29291	166.57734	1229.41727	-1923.4407	355.29736	1412.2995	-2091.50848	388.80424	1196.70929	-2121.33987	368.7011	1089.02428	-2141.08749	402.6939	983.22227	-2116.31165	357.29645	848.3918	-2034.06296	411.73203	838.51913	-2085.51117	419.44408	798.46794	-2034.68857	-7.81617	1417.49924	-2070.56885	-37.6316	1190.33775	-2141.97754	-71.48819	1089.63272	-2102.59644	-63.93594	976.0247	-2110.66376	-88.3999	838.2251	-2061.92932	-107.3815	803.56781	-2010.53543	290.37674	975.04486	-1984.79874	10.19988	974.57649	-1994.58572	236.19972	1038.825	-2152.17484	59.4774	1044.02184	-2157.70203	284.34528	678.29567	-2157.98035	272.02705	504.09225	-2089.60907	-53.79015	854.74335	-2002.02209	265.83185	307.3477	-2095.97443	257.67033	124.72543	-2149.84329	216.54537	76.14861	-2212.41119	233.33965	86.95148	-2015.60562	4.84562	724.83604	-2156.11847	29.53089	565.17876	-2061.48071	78.67433	374.73717	-2082.91748	34.44677	123.11631	-2143.02078	48.38026	78.1853	-2023.47824	77.22255	64.00247	-2214.81339
40	1.31	225.88295	1657.43988	-1985.26627	92.7835	1651.99127	-1984.88068	223.40214	1632.6857	-2117.70554	97.23153	1626.05667	-2110.88226	245.01062	1387.30743	-2014.92859	101.67683	1386.02219	-2010.25223	232.99419	1443.82278	-2129.01764	83.49718	1450.65048	-2115.87601	153.81139	1292.47284	-2189.8999	169.42339	1315.38971	-1964.14276	167.02806	1229.34227	-1923.35983	355.61028	1412.2934	-2091.40793	389.09458	1196.72012	-2121.20438	368.9257	1088.7532	-2140.62988	403.06217	983.27873	-2116.14868	357.79961	848.5881	-2033.46695	412.10033	838.55682	-2085.08392	419.8222	798.57681	-2034.22012	-7.51253	1417.39929	-2070.3479	-37.2742	1190.22499	-2141.82861	-71.09191	1089.49234	-2102.47849	-63.5557	975.91019	-2110.71655	-88.00117	838.1646	-2062.10892	-107.03382	803.34999	-2010.75668	290.6933	975.05745	-1984.70016	10.61898	974.66537	-1994.5401	236.56202	1038.78746	-2152.03415	59.87672	1043.95767	-2157.61688	284.69482	678.22243	-2157.82593	272.87853	505.21049	-2087.11334	-53.34123	854.53606	-2002.16843	265.9585	307.29361	-2095.91553	257.74502	124.71496	-2149.82956	216.58257	76.13197	-2212.39838	233.34145	86.93398	-2015.62393	5.09651	724.80141	-2155.86594	30.08785	565.38219	-2061.33331	78.96506	374.79317	-2082.92511	34.48164	123.12858	-2143.01117	48.34718	78.17367	-2023.46451	77.28017	64.007	-2214.80835
41	1.343	226.13552	1657.39365	-1984.77722	93.13314	1651.93756	-1984.61838	223.56688	1632.73163	-2117.22595	97.40231	1626.14975	-2110.39642	243.80949	1386.31332	-2013.13004	101.96949	1385.97931	-2009.96964	233.2633	1443.89557	-2128.75931	83.80238	1450.62759	-2115.57388	154.15854	1292.52945	-2189.66354	169.86683	1315.3096	-1964.03473	167.37537	1229.18182	-1923.12668	355.85201	1412.35718	-2091.12274	389.44649	1196.76689	-2121.02844	369.3441	1089.08829	-2140.7074	403.34328	983.29048	-2115.77087	358.40229	848.77663	-2032.96539	412.47936	838.64357	-2084.69986	420.25101	798.74519	-2033.79517	-7.21999	1417.34695	-2070.08209	-36.92844	1190.21393	-2141.59683	-70.72167	1089.44595	-2102.29126	-63.18071	975.94627	-2110.71228	-87.60759	837.98004	-2062.35565	-106.61879	803.15651	-2011.06781	291.04	975.02228	-1984.58405	10.92145	974.66125	-1994.42154	236.88108	1038.75938	-2151.91193	60.22099	1043.87535	-2157.4881	284.9596	678.17924	-2157.5885	272.99955	505.13653	-2086.978	-52.94682	854.30435	-2002.41074	266.16674	307.21312	-2095.88791	257.80586	124.65938	-2149.84116	216.64387	76.11691	-2212.40051	233.36546	86.9348	-2015.63461	5.30288	724.79927	-2155.51392	30.55498	565.54619	-2061.0318	79.1172	374.67243	-2082.56851	34.55175	123.16262	-2143.01437	48.32857	78.19068	-2023.46283	77.31947	63.9713	-2214.80972
42	1.377	226.43791	1657.39166	-1984.34662	93.30039	1651.96655	-1983.87589	223.75414	1632.71896	-2116.81198	97.58326	1626.15067	-2109.9234	245.56639	1387.20901	-2014.15802	102.35146	1385.92606	-2009.64951	233.51656	1443.97339	-2128.34518	84.05408	1450.61325	-2115.15976	154.46772	1292.60284	-2189.32327	170.17582	1315.26337	-1963.78265	167.68991	1229.13651	-1922.92084	356.10298	1412.41318	-2090.69946	389.75216	1196.91681	-2120.76096	369.67857	1089.21692	-2140.45502	403.773	983.45322	-2115.62576	358.66142	849.10576	-2032.66388	412.93266	838.81493	-2084.41666	420.72113	798.91991	-2033.52081	-6.93517	1417.24792	-2069.69666	-36.54399	1190.19173	-2141.40427	-70.39703	1089.41147	-2102.17804	-62.79678	975.88837	-2110.72433	-87.12656	837.93983	-2062.59567	-106.17774	802.92542	-2011.33514	291.36768	975.01175	-1984.44641	11.30265	974.77798	-1994.24332	237.16141	1038.73398	-2151.77963	60.54457	1043.88908	-2157.35214	285.17027	678.15857	-2157.41302	273.11728	505.06924	-2086.81885	-52.60182	854.15634	-2002.56287	266.22789	307.1562	-2095.8049	257.8422	124.54764	-2149.90967	216.65312	76.09706	-2212.42249	233.38306	86.935	-2015.63477	5.38766	724.75769	-2155.14603	30.97353	565.71072	-2060.64499	79.45011	374.66236	-2082.43027	34.59153	123.19016	-2143.00064	48.29743	78.19807	-2023.44025	77.36644	63.98722	-2214.81857
43	1.41	226.79323	1657.44904	-1983.92181	93.46961	1651.94901	-1983.32275	223.91903	1632.70355	-2116.30081	97.77657	1626.07208	-2109.35547	245.98488	1387.13333	-2013.59146	102.66987	1385.82336	-2009.13773	233.77958	1444.08127	-2127.82715	84.27368	1450.62424	-2114.64401	154.78874	1292.69897	-2188.90167	170.4215	1315.09476	-1963.34534	168.0419	1228.96751	-1922.7066	356.38374	1412.63916	-2090.24384	390.11288	1197.07558	-2120.42679	370.08648	1089.37645	-2140.22705	404.18728	983.58292	-2115.35797	359.07616	849.18243	-2032.56927	413.45535	838.94241	-2084.22775	421.27842	799.07265	-2033.34396	-6.65516	1417.07367	-2069.16824	-36.21608	1190.06973	-2141.11893	-70.0501	1089.29955	-2102.05444	-62.45854	975.79582	-2110.70511	-86.75527	837.80052	-2062.78687	-105.79286	802.71606	-2011.4888	291.65369	974.93958	-1984.29779	11.60028	974.80759	-1993.94012	237.35498	1038.68332	-2151.60202	60.75368	1043.85025	-2157.09839	285.30186	678.12706	-2157.28714	272.61408	504.05651	-2088.82324	-52.2074	853.93478	-2002.66449	266.36587	307.13001	-2095.7402	257.89286	124.5429	-2149.90875	216.62821	76.0799	-2212.45514	233.39138	86.92824	-2015.68451	5.57947	724.78134	-2154.79568	31.26746	565.76698	-2060.30396	79.55853	374.62505	-2082.10373	34.61802	123.23595	-2142.93335	48.31283	78.20725	-2023.38531	77.38404	64.00682	-2214.82101
44	1.443	226.97474	1657.53464	-1983.38699	93.65799	1651.9165	-1982.87125	224.0366	1632.6123	-2115.76447	97.90246	1625.91843	-2108.77289	246.13035	1387.07779	-2013.09494	102.99276	1385.59326	-2008.51685	234.03103	1444.1185	-2127.19696	84.54286	1450.61371	-2113.97842	155.07052	1292.76947	-2188.42178	170.7585	1314.88098	-1962.95334	168.40443	1228.75504	-1922.36282	356.64127	1412.67075	-2089.66553	390.5183	1197.17094	-2119.97574	370.55656	1089.47411	-2139.87579	404.72359	983.73497	-2115.11612	359.49276	849.08836	-2032.60727	414.01466	839.06258	-2084.07959	421.7944	799.12895	-2033.18466	-6.40712	1417.00439	-2068.59009	-35.8663	1190.08041	-2140.81924	-69.70594	1089.2202	-2101.8634	-62.09528	975.70374	-2110.60379	-86.47617	837.75826	-2062.68173	-105.43415	802.54082	-2011.59485	291.98107	974.93622	-1984.09576	11.88912	974.90097	-1993.51517	237.50557	1038.64006	-2151.33591	60.96133	1043.83972	-2156.70151	285.45288	678.09807	-2157.04681	273.5087	504.90063	-2087.03827	-51.69801	853.7764	-2002.67944	266.5572	307.061	-2095.61356	257.95315	124.54665	-2149.88037	216.64801	76.04113	-2212.47131	233.38621	86.92607	-2015.69229	5.76623	724.79057	-2154.34143	31.37212	565.70969	-2060.05157	79.63539	374.63432	-2081.83304	34.62178	123.23702	-2142.85217	48.4158	78.24768	-2023.38455	77.34139	64.00959	-2214.80286
